<mxfile host="app.diagrams.net" modified="2023-09-06T02:47:38.333Z" agent="Mozilla/5.0 (Windows NT 10.0; Win64; x64) AppleWebKit/537.36 (KHTML, like Gecko) Chrome/115.0.0.0 Safari/537.36" etag="2OFIQF7NndSCdKtUvJUX" version="21.7.2" type="github">
  <diagram name="第 1 页" id="9iKlQH3wTTYV1hTV3GYo">
    <mxGraphModel dx="1877" dy="542" grid="1" gridSize="10" guides="1" tooltips="1" connect="1" arrows="1" fold="1" page="1" pageScale="1" pageWidth="827" pageHeight="1169" math="0" shadow="0">
      <root>
        <mxCell id="0" />
        <mxCell id="1" parent="0" />
        <mxCell id="6N1PnCKENwVNhVdHrGls-14" style="rounded=0;orthogonalLoop=1;jettySize=auto;html=1;exitX=0.5;exitY=1;exitDx=0;exitDy=0;entryX=0.5;entryY=0;entryDx=0;entryDy=0;" edge="1" parent="1" source="6N1PnCKENwVNhVdHrGls-2" target="6N1PnCKENwVNhVdHrGls-3">
          <mxGeometry relative="1" as="geometry" />
        </mxCell>
        <mxCell id="6N1PnCKENwVNhVdHrGls-16" style="edgeStyle=orthogonalEdgeStyle;rounded=0;orthogonalLoop=1;jettySize=auto;html=1;exitX=0.5;exitY=1;exitDx=0;exitDy=0;entryX=0.5;entryY=0;entryDx=0;entryDy=0;" edge="1" parent="1" source="6N1PnCKENwVNhVdHrGls-2" target="6N1PnCKENwVNhVdHrGls-4">
          <mxGeometry relative="1" as="geometry" />
        </mxCell>
        <mxCell id="6N1PnCKENwVNhVdHrGls-17" style="edgeStyle=orthogonalEdgeStyle;rounded=0;orthogonalLoop=1;jettySize=auto;html=1;exitX=0.5;exitY=1;exitDx=0;exitDy=0;" edge="1" parent="1" source="6N1PnCKENwVNhVdHrGls-2" target="6N1PnCKENwVNhVdHrGls-12">
          <mxGeometry relative="1" as="geometry" />
        </mxCell>
        <mxCell id="6N1PnCKENwVNhVdHrGls-18" style="edgeStyle=orthogonalEdgeStyle;rounded=0;orthogonalLoop=1;jettySize=auto;html=1;exitX=0.5;exitY=1;exitDx=0;exitDy=0;" edge="1" parent="1" source="6N1PnCKENwVNhVdHrGls-2" target="6N1PnCKENwVNhVdHrGls-6">
          <mxGeometry relative="1" as="geometry" />
        </mxCell>
        <mxCell id="6N1PnCKENwVNhVdHrGls-19" style="edgeStyle=orthogonalEdgeStyle;rounded=0;orthogonalLoop=1;jettySize=auto;html=1;exitX=0.5;exitY=1;exitDx=0;exitDy=0;" edge="1" parent="1" source="6N1PnCKENwVNhVdHrGls-2" target="6N1PnCKENwVNhVdHrGls-10">
          <mxGeometry relative="1" as="geometry" />
        </mxCell>
        <mxCell id="6N1PnCKENwVNhVdHrGls-2" value="&lt;font style=&quot;font-size: 15px;&quot;&gt;指标管理平台&lt;/font&gt;" style="rounded=0;whiteSpace=wrap;html=1;fillColor=#dae8fc;strokeColor=#6c8ebf;" vertex="1" parent="1">
          <mxGeometry x="330" y="350" width="140" height="30" as="geometry" />
        </mxCell>
        <mxCell id="6N1PnCKENwVNhVdHrGls-45" style="edgeStyle=orthogonalEdgeStyle;rounded=0;orthogonalLoop=1;jettySize=auto;html=1;exitX=0.5;exitY=1;exitDx=0;exitDy=0;" edge="1" parent="1" source="6N1PnCKENwVNhVdHrGls-3" target="6N1PnCKENwVNhVdHrGls-25">
          <mxGeometry relative="1" as="geometry" />
        </mxCell>
        <mxCell id="6N1PnCKENwVNhVdHrGls-46" style="edgeStyle=orthogonalEdgeStyle;rounded=0;orthogonalLoop=1;jettySize=auto;html=1;exitX=0.5;exitY=1;exitDx=0;exitDy=0;entryX=0.5;entryY=0;entryDx=0;entryDy=0;" edge="1" parent="1" source="6N1PnCKENwVNhVdHrGls-3" target="6N1PnCKENwVNhVdHrGls-27">
          <mxGeometry relative="1" as="geometry" />
        </mxCell>
        <mxCell id="6N1PnCKENwVNhVdHrGls-47" style="edgeStyle=orthogonalEdgeStyle;rounded=0;orthogonalLoop=1;jettySize=auto;html=1;exitX=0.5;exitY=1;exitDx=0;exitDy=0;entryX=0.5;entryY=0;entryDx=0;entryDy=0;" edge="1" parent="1" source="6N1PnCKENwVNhVdHrGls-3" target="6N1PnCKENwVNhVdHrGls-26">
          <mxGeometry relative="1" as="geometry" />
        </mxCell>
        <mxCell id="6N1PnCKENwVNhVdHrGls-3" value="&lt;font style=&quot;font-size: 15px;&quot;&gt;指标管理模块&lt;/font&gt;" style="rounded=0;whiteSpace=wrap;html=1;fillColor=#dae8fc;strokeColor=#6c8ebf;" vertex="1" parent="1">
          <mxGeometry x="330" y="450" width="140" height="30" as="geometry" />
        </mxCell>
        <mxCell id="6N1PnCKENwVNhVdHrGls-36" style="edgeStyle=orthogonalEdgeStyle;rounded=0;orthogonalLoop=1;jettySize=auto;html=1;exitX=0.5;exitY=1;exitDx=0;exitDy=0;entryX=0.5;entryY=0;entryDx=0;entryDy=0;" edge="1" parent="1" source="6N1PnCKENwVNhVdHrGls-4" target="6N1PnCKENwVNhVdHrGls-22">
          <mxGeometry relative="1" as="geometry" />
        </mxCell>
        <mxCell id="6N1PnCKENwVNhVdHrGls-37" style="edgeStyle=orthogonalEdgeStyle;rounded=0;orthogonalLoop=1;jettySize=auto;html=1;exitX=0.5;exitY=1;exitDx=0;exitDy=0;entryX=0.5;entryY=0;entryDx=0;entryDy=0;" edge="1" parent="1" source="6N1PnCKENwVNhVdHrGls-4" target="6N1PnCKENwVNhVdHrGls-24">
          <mxGeometry relative="1" as="geometry" />
        </mxCell>
        <mxCell id="6N1PnCKENwVNhVdHrGls-38" style="edgeStyle=orthogonalEdgeStyle;rounded=0;orthogonalLoop=1;jettySize=auto;html=1;exitX=0.5;exitY=1;exitDx=0;exitDy=0;entryX=0.5;entryY=0;entryDx=0;entryDy=0;" edge="1" parent="1" source="6N1PnCKENwVNhVdHrGls-4" target="6N1PnCKENwVNhVdHrGls-23">
          <mxGeometry relative="1" as="geometry" />
        </mxCell>
        <mxCell id="6N1PnCKENwVNhVdHrGls-4" value="&lt;font style=&quot;font-size: 15px;&quot;&gt;自定义字段管理模块&lt;/font&gt;" style="rounded=0;whiteSpace=wrap;html=1;fillColor=#dae8fc;strokeColor=#6c8ebf;" vertex="1" parent="1">
          <mxGeometry x="140" y="450" width="140" height="30" as="geometry" />
        </mxCell>
        <mxCell id="6N1PnCKENwVNhVdHrGls-48" style="edgeStyle=orthogonalEdgeStyle;rounded=0;orthogonalLoop=1;jettySize=auto;html=1;exitX=0.5;exitY=1;exitDx=0;exitDy=0;entryX=0.5;entryY=0;entryDx=0;entryDy=0;" edge="1" parent="1" source="6N1PnCKENwVNhVdHrGls-6" target="6N1PnCKENwVNhVdHrGls-28">
          <mxGeometry relative="1" as="geometry" />
        </mxCell>
        <mxCell id="6N1PnCKENwVNhVdHrGls-49" style="edgeStyle=orthogonalEdgeStyle;rounded=0;orthogonalLoop=1;jettySize=auto;html=1;exitX=0.5;exitY=1;exitDx=0;exitDy=0;entryX=0.5;entryY=0;entryDx=0;entryDy=0;" edge="1" parent="1" source="6N1PnCKENwVNhVdHrGls-6" target="6N1PnCKENwVNhVdHrGls-30">
          <mxGeometry relative="1" as="geometry" />
        </mxCell>
        <mxCell id="6N1PnCKENwVNhVdHrGls-50" style="edgeStyle=orthogonalEdgeStyle;rounded=0;orthogonalLoop=1;jettySize=auto;html=1;exitX=0.5;exitY=1;exitDx=0;exitDy=0;entryX=0.5;entryY=0;entryDx=0;entryDy=0;" edge="1" parent="1" source="6N1PnCKENwVNhVdHrGls-6" target="6N1PnCKENwVNhVdHrGls-29">
          <mxGeometry relative="1" as="geometry" />
        </mxCell>
        <mxCell id="6N1PnCKENwVNhVdHrGls-6" value="&lt;font style=&quot;font-size: 15px;&quot;&gt;记分卡管理模块&lt;/font&gt;" style="rounded=0;whiteSpace=wrap;html=1;fillColor=#dae8fc;strokeColor=#6c8ebf;" vertex="1" parent="1">
          <mxGeometry x="520" y="450" width="140" height="30" as="geometry" />
        </mxCell>
        <mxCell id="6N1PnCKENwVNhVdHrGls-51" style="edgeStyle=orthogonalEdgeStyle;rounded=0;orthogonalLoop=1;jettySize=auto;html=1;exitX=0.5;exitY=1;exitDx=0;exitDy=0;entryX=0.5;entryY=0;entryDx=0;entryDy=0;" edge="1" parent="1" source="6N1PnCKENwVNhVdHrGls-10" target="6N1PnCKENwVNhVdHrGls-31">
          <mxGeometry relative="1" as="geometry" />
        </mxCell>
        <mxCell id="6N1PnCKENwVNhVdHrGls-52" style="edgeStyle=orthogonalEdgeStyle;rounded=0;orthogonalLoop=1;jettySize=auto;html=1;exitX=0.5;exitY=1;exitDx=0;exitDy=0;" edge="1" parent="1" source="6N1PnCKENwVNhVdHrGls-10" target="6N1PnCKENwVNhVdHrGls-33">
          <mxGeometry relative="1" as="geometry" />
        </mxCell>
        <mxCell id="6N1PnCKENwVNhVdHrGls-53" style="edgeStyle=orthogonalEdgeStyle;rounded=0;orthogonalLoop=1;jettySize=auto;html=1;exitX=0.5;exitY=1;exitDx=0;exitDy=0;entryX=0.5;entryY=0;entryDx=0;entryDy=0;" edge="1" parent="1" source="6N1PnCKENwVNhVdHrGls-10" target="6N1PnCKENwVNhVdHrGls-32">
          <mxGeometry relative="1" as="geometry" />
        </mxCell>
        <mxCell id="6N1PnCKENwVNhVdHrGls-10" value="&lt;font style=&quot;font-size: 15px;&quot;&gt;实验模版管理模块&lt;/font&gt;" style="rounded=0;whiteSpace=wrap;html=1;fillColor=#dae8fc;strokeColor=#6c8ebf;" vertex="1" parent="1">
          <mxGeometry x="710" y="450" width="140" height="30" as="geometry" />
        </mxCell>
        <mxCell id="6N1PnCKENwVNhVdHrGls-34" style="edgeStyle=orthogonalEdgeStyle;rounded=0;orthogonalLoop=1;jettySize=auto;html=1;exitX=0.5;exitY=1;exitDx=0;exitDy=0;entryX=0.5;entryY=0;entryDx=0;entryDy=0;" edge="1" parent="1" source="6N1PnCKENwVNhVdHrGls-12" target="6N1PnCKENwVNhVdHrGls-20">
          <mxGeometry relative="1" as="geometry" />
        </mxCell>
        <mxCell id="6N1PnCKENwVNhVdHrGls-35" style="edgeStyle=orthogonalEdgeStyle;rounded=0;orthogonalLoop=1;jettySize=auto;html=1;exitX=0.5;exitY=1;exitDx=0;exitDy=0;" edge="1" parent="1" source="6N1PnCKENwVNhVdHrGls-12" target="6N1PnCKENwVNhVdHrGls-21">
          <mxGeometry relative="1" as="geometry" />
        </mxCell>
        <mxCell id="6N1PnCKENwVNhVdHrGls-12" value="&lt;font style=&quot;font-size: 15px;&quot;&gt;配置模块&lt;/font&gt;" style="rounded=0;whiteSpace=wrap;html=1;fillColor=#dae8fc;strokeColor=#6c8ebf;" vertex="1" parent="1">
          <mxGeometry x="-50" y="450" width="140" height="30" as="geometry" />
        </mxCell>
        <mxCell id="6N1PnCKENwVNhVdHrGls-20" value="&lt;font size=&quot;3&quot;&gt;数据源配置&lt;/font&gt;" style="rounded=0;whiteSpace=wrap;html=1;fillColor=#dae8fc;strokeColor=#6c8ebf;" vertex="1" parent="1">
          <mxGeometry x="-50" y="560" width="30" height="190" as="geometry" />
        </mxCell>
        <mxCell id="6N1PnCKENwVNhVdHrGls-21" value="&lt;font size=&quot;3&quot;&gt;基础字段配置&lt;/font&gt;" style="rounded=0;whiteSpace=wrap;html=1;fillColor=#dae8fc;strokeColor=#6c8ebf;" vertex="1" parent="1">
          <mxGeometry x="60" y="560" width="30" height="190" as="geometry" />
        </mxCell>
        <mxCell id="6N1PnCKENwVNhVdHrGls-22" value="&lt;font size=&quot;3&quot;&gt;自定义字段编辑&lt;/font&gt;" style="rounded=0;whiteSpace=wrap;html=1;fillColor=#dae8fc;strokeColor=#6c8ebf;" vertex="1" parent="1">
          <mxGeometry x="140" y="560" width="30" height="190" as="geometry" />
        </mxCell>
        <mxCell id="6N1PnCKENwVNhVdHrGls-23" value="&lt;font size=&quot;3&quot;&gt;自定义字段审核&lt;/font&gt;" style="rounded=0;whiteSpace=wrap;html=1;fillColor=#dae8fc;strokeColor=#6c8ebf;" vertex="1" parent="1">
          <mxGeometry x="250" y="560" width="30" height="190" as="geometry" />
        </mxCell>
        <mxCell id="6N1PnCKENwVNhVdHrGls-24" value="&lt;font size=&quot;3&quot;&gt;自定义字段搜索&lt;/font&gt;" style="rounded=0;whiteSpace=wrap;html=1;fillColor=#dae8fc;strokeColor=#6c8ebf;" vertex="1" parent="1">
          <mxGeometry x="195" y="560" width="30" height="190" as="geometry" />
        </mxCell>
        <mxCell id="6N1PnCKENwVNhVdHrGls-25" value="&lt;font size=&quot;3&quot;&gt;指标编辑&lt;/font&gt;" style="rounded=0;whiteSpace=wrap;html=1;fillColor=#dae8fc;strokeColor=#6c8ebf;" vertex="1" parent="1">
          <mxGeometry x="330" y="560" width="30" height="190" as="geometry" />
        </mxCell>
        <mxCell id="6N1PnCKENwVNhVdHrGls-26" value="&lt;font size=&quot;3&quot;&gt;指标审核&lt;/font&gt;" style="rounded=0;whiteSpace=wrap;html=1;fillColor=#dae8fc;strokeColor=#6c8ebf;" vertex="1" parent="1">
          <mxGeometry x="440" y="560" width="30" height="190" as="geometry" />
        </mxCell>
        <mxCell id="6N1PnCKENwVNhVdHrGls-27" value="&lt;font size=&quot;3&quot;&gt;指标搜索&lt;/font&gt;" style="rounded=0;whiteSpace=wrap;html=1;fillColor=#dae8fc;strokeColor=#6c8ebf;" vertex="1" parent="1">
          <mxGeometry x="385" y="560" width="30" height="190" as="geometry" />
        </mxCell>
        <mxCell id="6N1PnCKENwVNhVdHrGls-28" value="&lt;font size=&quot;3&quot;&gt;记分卡编辑&lt;/font&gt;" style="rounded=0;whiteSpace=wrap;html=1;fillColor=#dae8fc;strokeColor=#6c8ebf;" vertex="1" parent="1">
          <mxGeometry x="520" y="560" width="30" height="190" as="geometry" />
        </mxCell>
        <mxCell id="6N1PnCKENwVNhVdHrGls-29" value="&lt;font size=&quot;3&quot;&gt;记分卡审核&lt;/font&gt;" style="rounded=0;whiteSpace=wrap;html=1;fillColor=#dae8fc;strokeColor=#6c8ebf;" vertex="1" parent="1">
          <mxGeometry x="630" y="560" width="30" height="190" as="geometry" />
        </mxCell>
        <mxCell id="6N1PnCKENwVNhVdHrGls-30" value="&lt;font size=&quot;3&quot;&gt;记分卡搜索&lt;/font&gt;" style="rounded=0;whiteSpace=wrap;html=1;fillColor=#dae8fc;strokeColor=#6c8ebf;" vertex="1" parent="1">
          <mxGeometry x="575" y="560" width="30" height="190" as="geometry" />
        </mxCell>
        <mxCell id="6N1PnCKENwVNhVdHrGls-31" value="&lt;font size=&quot;3&quot;&gt;实验模版编辑&lt;/font&gt;" style="rounded=0;whiteSpace=wrap;html=1;fillColor=#dae8fc;strokeColor=#6c8ebf;" vertex="1" parent="1">
          <mxGeometry x="710" y="560" width="30" height="190" as="geometry" />
        </mxCell>
        <mxCell id="6N1PnCKENwVNhVdHrGls-32" value="&lt;font size=&quot;3&quot;&gt;实验模版审核&lt;/font&gt;" style="rounded=0;whiteSpace=wrap;html=1;fillColor=#dae8fc;strokeColor=#6c8ebf;" vertex="1" parent="1">
          <mxGeometry x="820" y="560" width="30" height="190" as="geometry" />
        </mxCell>
        <mxCell id="6N1PnCKENwVNhVdHrGls-33" value="&lt;font size=&quot;3&quot;&gt;实验模版搜索&lt;/font&gt;" style="rounded=0;whiteSpace=wrap;html=1;fillColor=#dae8fc;strokeColor=#6c8ebf;" vertex="1" parent="1">
          <mxGeometry x="765" y="560" width="30" height="190" as="geometry" />
        </mxCell>
      </root>
    </mxGraphModel>
  </diagram>
</mxfile>
